<svg width="70" height="70" viewBox="0 0 70 70" fill="none" xmlns="http://www.w3.org/2000/svg">
<g id="ph:clock-fill">
<path id="Vector" d="M21.5625 8.5625C19.3869 8.5625 17.2602 9.20764 15.4512 10.4163C13.6423 11.625 12.2324 13.343 11.3998 15.353C10.5673 17.363 10.3494 19.5747 10.7739 21.7085C11.1983 23.8423 12.246 25.8023 13.7843 27.3407C15.3227 28.879 17.2827 29.9267 19.4165 30.3511C21.5503 30.7756 23.762 30.5577 25.772 29.7252C27.782 28.8926 29.5 27.4827 30.7087 25.6738C31.9174 23.8648 32.5625 21.7381 32.5625 19.5625C32.5594 16.6461 31.3995 13.85 29.3373 11.7877C27.275 9.72549 24.4789 8.56558 21.5625 8.5625ZM27.4856 20.4087H21.5625C21.3381 20.4087 21.1229 20.3195 20.9642 20.1608C20.8055 20.0021 20.7163 19.7869 20.7163 19.5625V13.6394C20.7163 13.415 20.8055 13.1998 20.9642 13.0411C21.1229 12.8824 21.3381 12.7933 21.5625 12.7933C21.7869 12.7933 22.0021 12.8824 22.1608 13.0411C22.3195 13.1998 22.4087 13.415 22.4087 13.6394V18.7163H27.4856C27.71 18.7163 27.9252 18.8055 28.0839 18.9642C28.2426 19.1229 28.3317 19.3381 28.3317 19.5625C28.3317 19.7869 28.2426 20.0021 28.0839 20.1608C27.9252 20.3195 27.71 20.4087 27.4856 20.4087Z" />
</g>
</svg>
