<svg width="31" height="31" viewBox="0 0 31 31" fill="none" xmlns="http://www.w3.org/2000/svg">
<g id="typcn:home">
<path id="Vector" d="M12.9167 3C12.9167 3 4.92642 9.8975 0.461125 13.633C0.319038 13.7568 0.204561 13.9091 0.125122 14.08C0.0456818 14.2509 0.00305301 14.4366 0 14.625C0 14.9676 0.136086 15.2961 0.37832 15.5383C0.620555 15.7806 0.949095 15.9167 1.29167 15.9167H3.875V24.9583C3.875 25.3009 4.01109 25.6294 4.25332 25.8717C4.49556 26.1139 4.8241 26.25 5.16667 26.25H9.04167C9.38424 26.25 9.71278 26.1139 9.95501 25.8717C10.1972 25.6294 10.3333 25.3009 10.3333 24.9583V19.7917H15.5V24.9583C15.5 25.3009 15.6361 25.6294 15.8783 25.8717C16.1206 26.1139 16.4491 26.25 16.7917 26.25H20.6667C21.0092 26.25 21.3378 26.1139 21.58 25.8717C21.8223 25.6294 21.9583 25.3009 21.9583 24.9583V15.9167H24.5417C24.8842 15.9167 25.2128 15.7806 25.455 15.5383C25.6973 15.2961 25.8333 14.9676 25.8333 14.625C25.8315 14.433 25.7861 14.2438 25.7003 14.072C25.6146 13.9001 25.4909 13.75 25.3386 13.633C20.9043 9.8975 12.9167 3 12.9167 3Z" fill="#75746F"/>
</g>
</svg>
