<svg width="23" height="16" viewBox="0 0 23 16" fill="none" xmlns="http://www.w3.org/2000/svg">
<path id="Vector" d="M23 5.15909V14.1818C23 14.6818 22.7989 15.1098 22.3968 15.4659C21.9946 15.822 21.5112 16 20.9464 16H2.05357C1.48884 16 1.00539 15.822 0.603237 15.4659C0.201079 15.1098 0 14.6818 0 14.1818V5.15909C0.376488 5.5303 0.808594 5.85985 1.29632 6.14773C4.39379 8.01136 6.52009 9.31818 7.67522 10.0682C8.16295 10.3864 8.55869 10.6345 8.86244 10.8125C9.1662 10.9905 9.5705 11.1723 10.0753 11.358C10.5802 11.5436 11.0508 11.6364 11.4872 11.6364H11.5128C11.9492 11.6364 12.4198 11.5436 12.9247 11.358C13.4295 11.1723 13.8338 10.9905 14.1376 10.8125C14.4413 10.6345 14.8371 10.3864 15.3248 10.0682C16.7794 9.13636 18.91 7.82955 21.7165 6.14773C22.2042 5.85227 22.6321 5.52273 23 5.15909ZM23 1.81818C23 2.41667 22.7904 2.98864 22.3711 3.53409C21.9518 4.07955 21.4299 4.54545 20.8052 4.93182C17.588 6.90909 15.5858 8.14015 14.7985 8.625C14.713 8.67803 14.5312 8.79356 14.2531 8.97159C13.975 9.14962 13.744 9.29356 13.56 9.40341C13.376 9.51326 13.1536 9.63636 12.8926 9.77273C12.6316 9.90909 12.3856 10.0114 12.1546 10.0795C11.9235 10.1477 11.7096 10.1818 11.5128 10.1818H11.4872C11.2904 10.1818 11.0765 10.1477 10.8454 10.0795C10.6144 10.0114 10.3684 9.90909 10.1074 9.77273C9.84645 9.63636 9.62398 9.51326 9.44001 9.40341C9.25605 9.29356 9.02502 9.14962 8.74693 8.97159C8.46884 8.79356 8.28702 8.67803 8.20145 8.625C7.42281 8.14015 6.3019 7.44886 4.83873 6.55114C3.37556 5.65341 2.49851 5.11364 2.20759 4.93182C1.67708 4.61364 1.17653 4.17614 0.705915 3.61932C0.235305 3.0625 0 2.54545 0 2.06818C0 1.47727 0.177548 0.984848 0.532645 0.590909C0.887742 0.19697 1.39472 0 2.05357 0H20.9464C21.5026 0 21.9839 0.17803 22.3903 0.534091C22.7968 0.890152 23 1.31818 23 1.81818Z" />
</svg>
