<svg width="14" height="11" viewBox="0 0 14 11" fill="none" xmlns="http://www.w3.org/2000/svg">
<path id="Line 42" d="M1 4.94259C0.641015 4.94259 0.35 5.23361 0.35 5.59259C0.35 5.95158 0.641015 6.24259 1 6.24259V4.94259ZM13.4596 6.05221C13.7135 5.79837 13.7135 5.38681 13.4596 5.13297L9.32304 0.996397C9.0692 0.742556 8.65765 0.742556 8.40381 0.996397C8.14997 1.25024 8.14997 1.66179 8.40381 1.91564L12.0808 5.59259L8.40381 9.26955C8.14997 9.52339 8.14997 9.93494 8.40381 10.1888C8.65765 10.4426 9.0692 10.4426 9.32304 10.1888L13.4596 6.05221ZM1 6.24259H13V4.94259H1V6.24259Z"/>
</svg>
