<svg width="39" height="39" viewBox="0 0 39 39" fill="none" xmlns="http://www.w3.org/2000/svg">
<g id="mdi:people-group" clip-path="url(#clip0_2473_2252)">
<path id="Vector" d="M19.5 8.9375C21.0084 8.9375 22.4551 9.53672 23.5217 10.6033C24.5883 11.6699 25.1875 13.1166 25.1875 14.625C25.1875 16.1334 24.5883 17.5801 23.5217 18.6467C22.4551 19.7133 21.0084 20.3125 19.5 20.3125C17.9916 20.3125 16.5449 19.7133 15.4783 18.6467C14.4117 17.5801 13.8125 16.1334 13.8125 14.625C13.8125 13.1166 14.4117 11.6699 15.4783 10.6033C16.5449 9.53672 17.9916 8.9375 19.5 8.9375ZM8.125 13C9.035 13 9.88 13.2438 10.6112 13.6825C10.3675 16.0062 11.05 18.3138 12.4475 20.1175C11.635 21.6775 10.01 22.75 8.125 22.75C6.83207 22.75 5.59209 22.2364 4.67785 21.3221C3.76361 20.4079 3.25 19.1679 3.25 17.875C3.25 16.5821 3.76361 15.3421 4.67785 14.4279C5.59209 13.5136 6.83207 13 8.125 13ZM30.875 13C32.1679 13 33.4079 13.5136 34.3221 14.4279C35.2364 15.3421 35.75 16.5821 35.75 17.875C35.75 19.1679 35.2364 20.4079 34.3221 21.3221C33.4079 22.2364 32.1679 22.75 30.875 22.75C28.99 22.75 27.365 21.6775 26.5525 20.1175C27.9693 18.2884 28.6269 15.9838 28.3887 13.6825C29.12 13.2438 29.965 13 30.875 13ZM8.9375 29.6562C8.9375 26.2925 13.6663 23.5625 19.5 23.5625C25.3337 23.5625 30.0625 26.2925 30.0625 29.6562V32.5H8.9375V29.6562ZM0 32.5V30.0625C0 27.8037 3.07125 25.9025 7.23125 25.35C6.2725 26.455 5.6875 27.9825 5.6875 29.6562V32.5H0ZM39 32.5H33.3125V29.6562C33.3125 27.9825 32.7275 26.455 31.7687 25.35C35.9287 25.9025 39 27.8037 39 30.0625V32.5Z"/>
</g>
<defs>
<clipPath id="clip0_2473_2252">
<rect width="39" height="39" fill="white"/>
</clipPath>
</defs>
</svg>
