<svg width="33" height="33" viewBox="0 0 33 33" fill="none" xmlns="http://www.w3.org/2000/svg">
<g id="material-symbols:person">
<path id="Vector" d="M16.5 16.5C14.9875 16.5 13.6927 15.9615 12.6156 14.8844C11.5385 13.8073 11 12.5125 11 11C11 9.4875 11.5385 8.19271 12.6156 7.11563C13.6927 6.03854 14.9875 5.5 16.5 5.5C18.0125 5.5 19.3073 6.03854 20.3844 7.11563C21.4615 8.19271 22 9.4875 22 11C22 12.5125 21.4615 13.8073 20.3844 14.8844C19.3073 15.9615 18.0125 16.5 16.5 16.5ZM5.5 27.5V23.65C5.5 22.8708 5.70075 22.1549 6.10225 21.5022C6.50375 20.8496 7.03633 20.3509 7.7 20.0063C9.12083 19.2958 10.5646 18.7632 12.0312 18.4085C13.4979 18.0537 14.9875 17.8759 16.5 17.875C18.0125 17.875 19.5021 18.0528 20.9688 18.4085C22.4354 18.7642 23.8792 19.2968 25.3 20.0063C25.9646 20.35 26.4976 20.8487 26.8991 21.5022C27.3006 22.1558 27.5009 22.8718 27.5 23.65V27.5H5.5Z"/>
</g>
</svg>
