<svg width="23" height="21" viewBox="0 0 23 21" fill="none" xmlns="http://www.w3.org/2000/svg">
<path id="Vector" d="M18.5278 10.5C18.0194 10.5 17.5319 10.3156 17.1725 9.98744C16.813 9.65925 16.6111 9.21413 16.6111 8.75C16.6111 8.28587 16.813 7.84075 17.1725 7.51256C17.5319 7.18437 18.0194 7 18.5278 7C19.0361 7 19.5236 7.18437 19.8831 7.51256C20.2425 7.84075 20.4444 8.28587 20.4444 8.75C20.4444 9.21413 20.2425 9.65925 19.8831 9.98744C19.5236 10.3156 19.0361 10.5 18.5278 10.5ZM14.6944 5.83333C14.1861 5.83333 13.6986 5.64896 13.3392 5.32077C12.9797 4.99258 12.7778 4.54746 12.7778 4.08333C12.7778 3.6192 12.9797 3.17408 13.3392 2.8459C13.6986 2.51771 14.1861 2.33333 14.6944 2.33333C15.2028 2.33333 15.6903 2.51771 16.0497 2.8459C16.4092 3.17408 16.6111 3.6192 16.6111 4.08333C16.6111 4.54746 16.4092 4.99258 16.0497 5.32077C15.6903 5.64896 15.2028 5.83333 14.6944 5.83333ZM8.30556 5.83333C7.79722 5.83333 7.30971 5.64896 6.95027 5.32077C6.59082 4.99258 6.38889 4.54746 6.38889 4.08333C6.38889 3.6192 6.59082 3.17408 6.95027 2.8459C7.30971 2.51771 7.79722 2.33333 8.30556 2.33333C8.81389 2.33333 9.3014 2.51771 9.66084 2.8459C10.0203 3.17408 10.2222 3.6192 10.2222 4.08333C10.2222 4.54746 10.0203 4.99258 9.66084 5.32077C9.3014 5.64896 8.81389 5.83333 8.30556 5.83333ZM4.47222 10.5C3.96389 10.5 3.47638 10.3156 3.11693 9.98744C2.75749 9.65925 2.55556 9.21413 2.55556 8.75C2.55556 8.28587 2.75749 7.84075 3.11693 7.51256C3.47638 7.18437 3.96389 7 4.47222 7C4.98055 7 5.46807 7.18437 5.82751 7.51256C6.18696 7.84075 6.38889 8.28587 6.38889 8.75C6.38889 9.21413 6.18696 9.65925 5.82751 9.98744C5.46807 10.3156 4.98055 10.5 4.47222 10.5ZM11.5 0C8.45001 0 5.52494 1.10625 3.36827 3.07538C1.2116 5.04451 0 7.71523 0 10.5C0 13.2848 1.2116 15.9555 3.36827 17.9246C5.52494 19.8938 8.45001 21 11.5 21C12.0083 21 12.4958 20.8156 12.8553 20.4874C13.2147 20.1592 13.4167 19.7141 13.4167 19.25C13.4167 18.795 13.225 18.3867 12.9183 18.0833C12.6244 17.7683 12.4328 17.36 12.4328 16.9167C12.4328 16.4525 12.6347 16.0074 12.9942 15.6792C13.3536 15.351 13.8411 15.1667 14.3494 15.1667H16.6111C18.3055 15.1667 19.9306 14.5521 21.1287 13.4581C22.3269 12.3642 23 10.8804 23 9.33333C23 4.17667 17.8506 0 11.5 0Z"/>
</svg>
