<svg width="15" height="15" viewBox="0 0 15 15" fill="none" xmlns="http://www.w3.org/2000/svg">
<path id="Vector" d="M5.21634 2.485C6.13946 0.828334 6.60175 0 7.29155 0C7.98134 0 8.44363 0.828334 9.36675 2.485L9.60592 2.91375C9.86842 3.38479 9.99967 3.61958 10.2038 3.77417C10.408 3.93021 10.6647 3.98854 11.1736 4.10375L11.6374 4.20875C13.4311 4.61417 14.328 4.81688 14.5409 5.50375C14.7553 6.18917 14.1428 6.90375 12.9207 8.33438L12.6043 8.70479C12.2572 9.11021 12.0836 9.31437 12.0063 9.56521C11.9261 9.81604 11.9524 10.0873 12.0063 10.6298L12.053 11.1227C12.2382 13.0302 12.3301 13.984 11.7715 14.4083C11.213 14.8312 10.3745 14.4462 8.69446 13.6733L8.25988 13.4721C7.783 13.2533 7.5453 13.1425 7.29155 13.1425C7.03925 13.1425 6.80009 13.2533 6.32321 13.4721L5.88863 13.6733C4.20863 14.4462 3.37009 14.8327 2.81155 14.4083C2.253 13.9854 2.34488 13.0302 2.53009 11.1227L2.57675 10.6298C2.63071 10.0873 2.65696 9.81604 2.57675 9.56521C2.49946 9.31437 2.32592 9.11021 1.97884 8.70479L1.66238 8.33438C0.440296 6.90521 -0.172205 6.19063 0.0421698 5.50375C0.255087 4.81833 1.1505 4.61417 2.94425 4.20875L3.40946 4.10375C3.91988 3.98708 4.17363 3.93021 4.37925 3.77562C4.58342 3.61958 4.71467 3.38479 4.97717 2.91521L5.21634 2.485Z" fill="#9288CC"/>
</svg>
